<?xml version="1.0" encoding="UTF-8"?>
<svg width="420" height="400" version="1.1" viewBox="0 0 111.1 105.8" xmlns="http://www.w3.org/2000/svg" xmlns:cc="http://creativecommons.org/ns#" xmlns:dc="http://purl.org/dc/elements/1.1/" xmlns:rdf="http://www.w3.org/1999/02/22-rdf-syntax-ns#">
 <metadata>
  <rdf:RDF>
   <cc:Work rdf:about="">
    <dc:format>image/svg+xml</dc:format>
    <dc:type rdf:resource="http://purl.org/dc/dcmitype/StillImage"/>
    <dc:title/>
   </cc:Work>
  </rdf:RDF>
 </metadata>
 <g></g>
 <g></g>
 <g></g>
 <g>
  <g>
   <g transform="translate(-10.58)">
    <g transform="translate(-1.675e-5)">
     <path d="m58.98 42.31v6.5h5.372v1.783h-5.372v1.783h5.372v1.783h-5.372v1.783h5.372v1.783h-5.372v42.93h14.32v-42.93h-5.372v-1.783h5.372v-1.783h-5.372v-1.783h5.372v-1.783h-5.372v-1.783h5.372v-6.5z" style="fill-opacity:.5823;fill:#333;stroke-width:2"/>
     <path d="m47.29 17.6v8.555l1.421 12.08c-2.4e-4 1.527 8.325 2.764 17.43 2.765 9.107 1.9e-5 17.43-1.238 17.43-2.765l1.421-12.08v-8.555c0-15.55-17.06-15.63-18.85-15.63s-18.85 0.08324-18.85 15.63z" style="fill:#808080;stroke-width:2"/>
     <path d="m47.29 26.15c-0.0511 0.1525 1.339 15.64 1.421 15.85-1.1e-4 0.4873 0.8541 0.9444 2.305 1.342 2.546 0.85 6.985 1.589 12.42 1.739 3.485 0.09642 7.011-0.1843 10.17-0.6026 5.731-0.4508 9.973-1.39 9.973-2.478 0.0815-0.1271 0.4793-4.303 0.8864-9.119 0.3074-3.637 0.548-6.668 0.5348-6.735-0.0132-0.06692-0.2476 1.804-0.5214 4.158-0.3241 2.786-0.5366 4.34-0.6088 4.455-0.6045 0.9575-4.75 1.864-10.6 2.316-8.558 0.6626-18.14 0.1987-22.81-1.182-0.9721-0.2873-1.833-0.7221-2.013-1.016-0.0982-0.1607-0.2586-1.306-0.6329-4.513-0.2758-2.364-0.5136-4.261-0.5283-4.217z"/>
     <ellipse cx="58.33" cy="21.64" rx="4.672" ry="4.652" style="fill:none;stroke-width:1.5;stroke:#000"/>
     <ellipse cx="73.96" cy="21.64" rx="4.672" ry="4.652" style="fill:none;stroke-width:1.5;stroke:#000"/>
     <path d="m58.33 16.32v0.8914h15.63v-0.8914h-9.576z" style="stroke-width:2"/>
     <rect transform="rotate(90)" x="21.19" y="-53.66" width=".8915" height="6.365" rx="0" ry="0" style="stroke-width:2"/>
     <rect transform="rotate(90)" x="21.19" y="-85" width=".8915" height="6.387" rx="0" ry="0" style="stroke-width:2"/>
     <rect transform="rotate(90)" x="19.78" y="-69.29" width=".8915" height="6.244" rx="0" ry="0" style="stroke-width:2"/>
     <rect x="64.35" y="-2.422e-7" width="3.581" height="16.32" rx="0" ry="0" style="fill:#4d4d4d;stroke-width:2"/>
     <path d="m105.4 59.51-13.52 6.686 12.4 39.64h17.4z" style="fill:#4d4d4d;stroke-width:1.5"/>
     <path d="m26.86 59.51-16.27 46.32h17.4l12.4-39.64z" style="fill:#4d4d4d;stroke-width:1.5"/>
     <path d="m24.02 59.51 12.83 12.78v33.54h58.59v-33.54l12.83-12.78h-71.43z" style="fill:#666;stroke-width:2"/>
    </g>
    <path d="m70.48 21.64a3.479 3.464 0 0 1 3.479-3.464 3.479 3.464 0 0 1 3.479 3.464h-3.479z" style="fill:#fff;stroke-width:2"/>
    <path d="m54.85 21.64a3.479 3.464 0 0 1 3.479-3.464 3.479 3.464 0 0 1 3.479 3.464h-3.479z" style="fill:#fff;stroke-width:2"/>
    <ellipse cx="73.96" cy="21.64" rx="1.34" ry="1.334"/>
    <ellipse cx="58.33" cy="21.64" rx="1.34" ry="1.334"/>
    <path d="m45.63 18.31-0.9225 23.92c-3e-4 1.868 3.577 4.798 21.44 4.798 17.86 0 20.96-2.93 20.96-4.798-4.7e-4 -9e-3 -9.6e-4 -0.0178-2e-3 -0.0267l-0.4612-23.9h-1.702l-1.366 16.15c2.4e-4 1.527-8.326 2.765-17.43 2.765-9.107-1.7e-5 -17.43-1.238-17.43-2.765l-1.366-16.15z" style="fill:#4d4d4d;stroke-width:2.117"/>
    <g transform="matrix(.5344 0 0 .5322 107.9 90.71)" style="stroke-width:1.875">
     <rect transform="rotate(-45)" x="-39.09" y="-69.19" width="1" height="4" rx="0" ry="0" style="stroke-width:3.75"/>
     <rect transform="rotate(-45)" x="-36.72" y="-69.19" width="1" height="4" rx="0" ry="0" style="stroke-width:3.75"/>
     <rect transform="rotate(-45)" x="-34.36" y="-69.19" width="1" height="4" rx="0" ry="0" style="stroke-width:3.75"/>
     <rect transform="rotate(-45)" x="-31.99" y="-69.19" width="1" height="4" rx="0" ry="0" style="stroke-width:3.75"/>
     <rect transform="rotate(-45)" x="-29.63" y="-69.19" width="1" height="4" rx="0" ry="0" style="stroke-width:3.75"/>
     <rect transform="rotate(-45)" x="-27.26" y="-69.19" width="1" height="4" rx="0" ry="0" style="stroke-width:3.75"/>
     <rect transform="rotate(225)" x="71.33" y="-45.21" width="1" height="4" rx="0" ry="0" style="stroke-width:3.75"/>
     <rect transform="rotate(225)" x="73.69" y="-45.21" width="1" height="4" rx="0" ry="0" style="stroke-width:3.75"/>
     <rect transform="rotate(225)" x="76.06" y="-45.21" width="1" height="4" rx="0" ry="0" style="stroke-width:3.75"/>
     <rect transform="rotate(225)" x="78.42" y="-45.21" width="1" height="4" rx="0" ry="0" style="stroke-width:3.75"/>
     <rect transform="rotate(225)" x="80.79" y="-45.21" width="1" height="4" rx="0" ry="0" style="stroke-width:3.75"/>
     <rect transform="rotate(225)" x="83.15" y="-45.21" width="1" height="4" rx="0" ry="0" style="stroke-width:3.75"/>
     <rect transform="rotate(-45)" x="-38.94" y="-90.25" width="1" height="4" rx="0" ry="0" style="stroke-width:3.75"/>
     <rect transform="rotate(-45)" x="-36.18" y="-90.25" width="1" height="4" rx="0" ry="0" style="stroke-width:3.75"/>
     <rect transform="rotate(-45)" x="-33.42" y="-90.25" width="1" height="4" rx="0" ry="0" style="stroke-width:3.75"/>
     <g transform="rotate(-45 -78.06 -31.85)" style="stroke-width:1.875">
      <rect transform="rotate(90)" x="-32.11" y="65.53" width="1" height="4" rx="0" ry="0" style="stroke-width:3.75"/>
      <rect transform="rotate(90)" x="-29.35" y="65.53" width="1" height="4" rx="0" ry="0" style="stroke-width:3.75"/>
      <rect transform="rotate(90)" x="-26.59" y="65.53" width="1" height="4" rx="0" ry="0" style="stroke-width:3.75"/>
     </g>
    </g>
    <path d="m60.39 73.74 5.755 5.731 5.755-5.731-3.597-3.582-2.158 2.149-2.158-2.149z" style="fill:#f00;stroke-width:1.5"/>
   </g>
  </g>
 </g>
</svg>
